Coordinates
version=1
nRows=10
nColumns=23
inDegrees=yes

Units are S.I. units (second, meters, Newtons, ...)
If the header above contains a line with 'inDegrees', this indicates whether rotational values are in degrees (yes) or radians (no).

endheader
time	pelvis_tilt	pelvis_list	pelvis_rotation	pelvis_tx	pelvis_ty	pelvis_tz	hip_flexion_r	hip_adduction_r	hip_rotation_r	knee_angle_r	knee_angle_r_beta	ankle_angle_r	subtalar_angle_r	mtp_angle_r	hip_flexion_l	hip_adduction_l	hip_rotation_l	knee_angle_l	knee_angle_l_beta	ankle_angle_l	subtalar_angle_l	mtp_angle_l
     15.00000000	     -2.06489405	      6.31470236	      4.85806743	      2.27888685	      0.95049835	      1.04921636	      3.91142672	     -9.73766221	     -6.93924918	     84.81785278	      1.48035080	     -5.92541514	    -13.32201056	      0.00000000	     25.07108024	     10.73130432	     -0.62972277	     45.00553231	      0.78549472	     16.15766040	     -7.43309360	      0.00000000
     15.00666667	     -1.97568648	      6.48967884	      5.08585858	      2.27747525	      0.94721625	      1.04864294	      5.39172527	    -10.37762177	     -7.07412092	     86.78340273	      1.51465611	     -5.27096456	    -13.31298440	      0.00000000	     24.46654738	     10.98429167	     -0.39361177	     46.15458440	      0.80554946	     17.73127793	     -7.17681834	      0.00000000
     15.01333333	     -1.69402549	      6.65574757	      5.20055328	      2.27608153	      0.94476346	      1.04826243	      6.71960866	    -10.92014625	     -7.03809303	     88.47647789	      1.54420585	     -4.66829868	    -13.43395292	      0.00000000	     23.44835342	     11.17667762	     -0.15896318	     46.92327216	      0.81896560	     19.11991765	     -7.12477963	      0.00000000
     15.02000000	     -1.80196691	      6.74849611	      5.27536131	      2.27458743	      0.94224316	      1.04808548	      8.59327751	    -11.41839871	     -6.91686952	     90.07119474	      1.57203891	     -3.75812506	    -12.83268612	      0.00000000	     22.80682845	     11.15527947	     -0.25763747	     47.60388510	      0.83084453	     20.58585082	     -6.29128927	      0.00000000
     15.02666667	     -1.66242151	      6.83665199	      5.28473503	      2.27317351	      0.94069186	      1.04801523	     10.19163479	    -11.83674341	     -6.73176640	     91.32135246	      1.59385828	     -3.01241108	    -12.43841787	      0.00000000	     21.69600007	     11.10905284	     -0.29248793	     47.91250806	      0.83623102	     21.81032945	     -5.72890633	      0.00000000
     15.03333333	     -1.40334365	      6.79589375	      5.28415151	      2.27176480	      0.93999536	      1.04806818	     11.65257224	    -11.98255433	     -6.51566622	     92.21175042	      1.60939865	     -2.49283280	    -12.37313511	      0.00000000	     20.30659318	     10.98019986	     -0.09096066	     47.92182494	      0.83639363	     22.78439129	     -5.57646078	      0.00000000
     15.04000000	     -1.24591990	      6.73851691	      5.20591036	      2.27039158	      0.93966054	      1.04821311	     13.25312722	    -12.14112833	     -6.26836390	     92.88421081	      1.62113530	     -1.82913574	    -11.94524798	      0.00000000	     18.93767981	     10.75706066	     -0.07729989	     47.74999759	      0.83339468	     23.69110576	     -5.16870046	      0.00000000
     15.04666667	     -1.11684549	      6.60666997	      5.13181432	      2.26917171	      0.93976527	      1.04855045	     14.86019818	    -12.18859635	     -6.09046494	     93.31248302	      1.62861006	     -0.84342845	    -10.69982510	      0.00000000	     17.54711751	     10.18641434	     -0.61807040	     47.49409347	      0.82892831	     24.78522346	     -3.38822691	      0.00000000
     15.05333333	     -1.09488434	      6.31239375	      5.21337855	      2.26793507	      0.94059327	      1.04865171	     16.46014999	    -12.00124519	     -6.06043843	     93.29285270	      1.62826745	     -0.51862634	    -10.50487808	      0.00000000	     16.12159194	      9.78484249	     -0.32343069	     46.88934136	      0.81837339	     25.19272002	     -3.17372985	      0.00000000
     15.06000000	     -0.86850009	      6.16075592	      5.04815622	      2.26693103	      0.94207865	      1.04908292	     17.84978934	    -11.89264142	     -5.83272400	     93.09322419	      1.62478327	      0.44165414	     -9.32100946	      0.00000000	     14.34143312	      9.32841413	     -0.54517122	     46.02231807	      0.80324098	     25.68902561	     -2.28193329	      0.00000000
